FFmpeg version SVN-r25716, Copyright (c) 2000-2010 the FFmpeg developers  built on Nov 10 2010 12:23:18 with gcc 4.1.2 20080704 (Red Hat 4.1.2-48)  configuration: --enable-libmp3lame --enable-shared --disable-mmx --arch=x86_64  libavutil     50.33. 0 / 50.33. 0  libavcore      0.12. 1 /  0.12. 1  libavcodec    52.94. 4 / 52.94. 4  libavformat   52.84. 0 / 52.84. 0  libavdevice   52. 2. 2 / 52. 2. 2  libavfilter    1.59. 0 /  1.59. 0  libswscale     0.12. 0 /  0.12. 0Seems stream 0 codec frame rate differs from container frame rate: 600.00 (600/1) -> 12.00 (12/1)Input #0, mov,mp4,m4a,3gp,3g2,mj2, from '/RAID10/data/converted_video_files/13088.mov':  Duration: 00:00:06.41, start: 0.000000, bitrate: 15479 kb/s    Stream #0.0(eng): Video: mjpeg, yuvj420p, 454x397 [PAR 1:1 DAR 454:397], 15477 kb/s, 12 fps, 12 tbr, 600 tbn, 600 tbc[buffer @ 0xfb16690] w:454 h:397 pixfmt:yuvj420p[ffsink @ 0xfb16900] auto-inserting filter 'auto-inserted scaler 0' between the filter 'src' and the filter 'out'[scale @ 0xfb16c20] w:454 h:397 fmt:yuvj420p -> w:454 h:397 fmt:yuv420p flags:0x4Output #0, flv, to '/RAID10/data/converted_video_files/13088.flv':  Metadata:    encoder         : Lavf52.84.0    Stream #0.0(eng): Video: flv, yuv420p, 454x397 [PAR 1:1 DAR 454:397], q=2-31, 600 kb/s, 1k tbn, 24 tbcStream mapping:  Stream #0.0 -> #0.0Press [q] to stop encodingframe=   42 fps=  0 q=8.0 size=     322kB time=3.46 bitrate= 762.0kbits/s    frame=   77 fps= 72 q=6.0 Lsize=     452kB time=6.37 bitrate= 580.5kbits/s    video:450kB audio:0kB global headers:0kB muxing overhead 0.312743%